<svg xmlns="http://www.w3.org/2000/svg" width="54.97" height="54.97" viewBox="0 0 54.97 54.97"><defs><style>.a{fill:#eb2020;}</style></defs><g transform="translate(0 0)"><path d="M29.9,54.97H25.069a3.221,3.221,0,0,1-.805-6.34V47.294a.647.647,0,0,0-.528-.63A19.347,19.347,0,0,1,16.579,43.7a.651.651,0,0,0-.823.07l-.953.953a3.215,3.215,0,0,1-5.044,3.906L6.342,45.212a3.222,3.222,0,0,1,3.914-5.053l.944-.944a.651.651,0,0,0,.07-.823,19.348,19.348,0,0,1-2.965-7.158.647.647,0,0,0-.63-.528H6.341A3.226,3.226,0,0,1,3.1,33.12,3.235,3.235,0,0,1,0,29.849v-4.78A3.221,3.221,0,0,1,3.33,21.85a3.261,3.261,0,0,1,3,2.414h1.35a.647.647,0,0,0,.63-.528,19.347,19.347,0,0,1,2.965-7.158.651.651,0,0,0-.07-.823l-.944-.944A3.222,3.222,0,0,1,6.342,9.758L9.758,6.342a3.222,3.222,0,0,1,5.053,3.914l.944.944a.65.65,0,0,0,.823.07,19.349,19.349,0,0,1,7.158-2.965.647.647,0,0,0,.528-.63V6.34A3.221,3.221,0,0,1,25.069,0H29.9a3.221,3.221,0,0,1,.805,6.34V7.676a.647.647,0,0,0,.528.63,19.347,19.347,0,0,1,7.158,2.965.651.651,0,0,0,.823-.07l.945-.945a3.221,3.221,0,0,1,5.052-3.914l3.416,3.416a3.222,3.222,0,0,1-3.914,5.053l-.944.944a.651.651,0,0,0-.07.823,19.348,19.348,0,0,1,2.965,7.158.647.647,0,0,0,.63.528h1.348a3.252,3.252,0,0,1,2.818-2.4h0a3.221,3.221,0,0,1,3.51,3.208V29.9a3.215,3.215,0,0,1-6.329.805H47.294a.647.647,0,0,0-.63.528A19.347,19.347,0,0,1,43.7,38.391a.651.651,0,0,0,.07.823l.944.944a3.222,3.222,0,0,1,3.914,5.053l-3.416,3.416a3.215,3.215,0,0,1-5.044-3.906l-.953-.953a.65.65,0,0,0-.823-.07,19.349,19.349,0,0,1-7.158,2.965.647.647,0,0,0-.528.63V48.63a3.221,3.221,0,0,1-.805,6.34ZM16.208,41.439a2.807,2.807,0,0,1,1.571.48,17.211,17.211,0,0,0,6.367,2.637,2.8,2.8,0,0,1,2.265,2.737v2.04a1.343,1.343,0,0,1-1.342,1.342,1.074,1.074,0,0,0,0,2.147H29.9a1.074,1.074,0,1,0,0-2.147,1.343,1.343,0,0,1-1.342-1.342v-2.04a2.8,2.8,0,0,1,2.266-2.737,17.214,17.214,0,0,0,6.367-2.637,2.8,2.8,0,0,1,3.541.332l1.477,1.477a1.3,1.3,0,0,1,0,1.829,1.106,1.106,0,0,0-.1,1.478,1.074,1.074,0,0,0,1.587.074l3.416-3.416a1.074,1.074,0,0,0-1.518-1.518l-.034.034a1.3,1.3,0,0,1-1.829,0l-1.477-1.477a2.8,2.8,0,0,1-.332-3.541,17.212,17.212,0,0,0,2.637-6.367,2.8,2.8,0,0,1,2.737-2.266h2.088a1.3,1.3,0,0,1,1.294,1.294,1.105,1.105,0,0,0,.973,1.118A1.074,1.074,0,0,0,52.823,29.9V25.069A1.074,1.074,0,0,0,51.649,24a1.105,1.105,0,0,0-.973,1.118,1.3,1.3,0,0,1-1.294,1.294H47.294a2.8,2.8,0,0,1-2.737-2.266,17.214,17.214,0,0,0-2.637-6.367,2.8,2.8,0,0,1,.332-3.541l1.442-1.442a1.344,1.344,0,0,1,1.9,0,1.074,1.074,0,0,0,1.518-1.518L43.694,7.86a1.074,1.074,0,1,0-1.518,1.518,1.344,1.344,0,0,1,0,1.9l-1.442,1.442a2.8,2.8,0,0,1-3.541.332,17.211,17.211,0,0,0-6.367-2.637,2.8,2.8,0,0,1-2.266-2.738V5.637A1.343,1.343,0,0,1,29.9,4.295a1.074,1.074,0,0,0,0-2.147H25.069a1.074,1.074,0,1,0,0,2.147,1.343,1.343,0,0,1,1.342,1.342v2.04a2.8,2.8,0,0,1-2.266,2.737,17.214,17.214,0,0,0-6.367,2.637,2.8,2.8,0,0,1-3.541-.332l-1.442-1.442a1.342,1.342,0,0,1,0-1.9A1.074,1.074,0,0,0,11.277,7.86L7.86,11.276a1.074,1.074,0,0,0,1.518,1.519,1.344,1.344,0,0,1,1.9,0l1.442,1.442a2.8,2.8,0,0,1,.332,3.541,17.212,17.212,0,0,0-2.637,6.367,2.8,2.8,0,0,1-2.737,2.266H5.58a1.287,1.287,0,0,1-1.286-1.286A1.112,1.112,0,0,0,3.259,24a1.074,1.074,0,0,0-1.112,1.073v4.78a1.11,1.11,0,0,0,1.033,1.124A1.074,1.074,0,0,0,4.295,29.9a1.343,1.343,0,0,1,1.342-1.342h2.04a2.8,2.8,0,0,1,2.737,2.266,17.214,17.214,0,0,0,2.637,6.367,2.8,2.8,0,0,1-.332,3.541L11.242,42.21a1.3,1.3,0,0,1-1.829,0l-.034-.034A1.074,1.074,0,0,0,7.86,43.694l3.416,3.416a1.074,1.074,0,0,0,1.587-.074,1.106,1.106,0,0,0-.1-1.478,1.3,1.3,0,0,1,0-1.829l1.477-1.477a2.781,2.781,0,0,1,1.97-.812Z" transform="translate(0 0)"/></g><g transform="translate(18.829 13.944)"><path class="a" d="M179.883,138.9a4.509,4.509,0,1,1,4.509-4.509A4.514,4.514,0,0,1,179.883,138.9Zm0-6.871a2.362,2.362,0,1,0,2.362,2.362A2.365,2.365,0,0,0,179.883,132.025Z" transform="translate(-175.374 -129.878)"/></g><g transform="translate(16.391 30.399)"><path class="a" d="M156.568,290.94a3.9,3.9,0,1,1,3.9-3.9A3.905,3.905,0,0,1,156.568,290.94Zm0-5.655a1.754,1.754,0,1,0,1.754,1.754A1.756,1.756,0,0,0,156.568,285.285Z" transform="translate(-152.667 -283.138)"/></g><g transform="translate(28.39 23.905)"><path class="a" d="M271.018,235.88a6.627,6.627,0,0,1-6.586-5.855,1.074,1.074,0,1,1,2.133-.249,4.484,4.484,0,1,0,4.951-4.983,1.074,1.074,0,1,1,.235-2.134,6.631,6.631,0,0,1-.734,13.221Z" transform="translate(-264.426 -222.653)"/></g><g transform="translate(32.531 17.38)"><path d="M304.074,164.027a1.074,1.074,0,1,1,.759-.315A1.082,1.082,0,0,1,304.074,164.027Z" transform="translate(-303 -161.88)"/></g><g transform="translate(26.411 39.188)"><path d="M247.074,367.147a1.074,1.074,0,1,1,.759-.315A1.081,1.081,0,0,1,247.074,367.147Z" transform="translate(-246 -365)"/></g><g transform="translate(14.351 26.425)"><path d="M134.744,248.277a1.074,1.074,0,1,1,.759-.315A1.08,1.08,0,0,1,134.744,248.277Z" transform="translate(-133.67 -246.13)"/></g><g transform="translate(29.967 25.512)"><path d="M280.194,239.767a1.074,1.074,0,1,1,.759-.315A1.081,1.081,0,0,1,280.194,239.767Z" transform="translate(-279.12 -237.62)"/></g></svg>