<svg xmlns="http://www.w3.org/2000/svg" width="20" height="13.252" viewBox="0 0 20 13.252"><defs><style>.a{fill:#359846;}.b{fill:#ea8634;}.c{fill:#fcfbf0;}.d{fill:#21872f;}.e{fill:#e27423;}.f{fill:#f7f4e2;}.g{fill:#d86619;}.h{fill:#f2e9c2;}.i{fill:#167a20;}.j{fill:#7d7dbc;}.k{fill:#6060b2;}</style></defs><path class="a" d="M0,304v2.587a1.826,1.826,0,0,0,1.893,1.83H17.669a1.826,1.826,0,0,0,1.893-1.83V304Z" transform="translate(0.197 -295.166)"/><path class="b" d="M17.669,80H1.893A1.826,1.826,0,0,0,0,81.83v2.587H19.562V81.83A1.826,1.826,0,0,0,17.669,80Z" transform="translate(0.197 -80)"/><rect class="c" width="20" height="5" transform="translate(0 3.968)"/><path class="d" d="M320.374,308.417a1.88,1.88,0,0,0,1.956-1.83V304H315.2Z" transform="translate(-302.572 -295.166)"/><path class="e" d="M63.776,80H48l5.237,4.417H65.669V81.83A1.826,1.826,0,0,0,63.776,80Z" transform="translate(-45.91 -80)"/><path class="f" d="M185.364,196.417h7.1V192H180Z" transform="translate(-172.704 -187.583)"/><path class="g" d="M63.776,80H48l14.608,4.417h3.06V81.83A1.826,1.826,0,0,0,63.776,80Z" transform="translate(-45.91 -80)"/><path class="h" d="M417.618,192.883V192H414.4Z" transform="translate(-397.859 -187.583)"/><path class="i" d="M19.562,368.032a1.814,1.814,0,0,1-1.893,1.862H1.893A1.879,1.879,0,0,1,0,368" transform="translate(0.197 -356.642)"/><path class="j" d="M199.588,197.6a1.988,1.988,0,1,0,1.988,1.988A1.979,1.979,0,0,0,199.588,197.6Zm1.641,2.209c0,.032.032.095.063.095-.032.095-.032.189-.063.284-.032-.032-.095,0-.126.032s0,.095.032.126c-.032.095-.095.158-.126.252a.078.078,0,0,0-.126.032.1.1,0,0,0,0,.126l-.095.095-.694-.789-.284-.221.032-.032.284.221.915.473-.82-.631-.316-.126c0-.032,0-.032.032-.063l.316.126,1.01.221-.978-.316-.347-.063v-.063l.347.032,1.041-.063-1.041-.063-.347.032v-.063l.347-.063.978-.316-1.01.221-.316.126c0-.032,0-.032-.032-.063l.316-.126.883-.568-.915.473-.284.221-.032-.032.284-.221.694-.789.095.095a.1.1,0,0,0,0,.126.19.19,0,0,0,.126.032.634.634,0,0,1,.126.252c-.032.032-.063.063-.032.126.032.032.063.063.126.032a.921.921,0,0,1,.063.284c-.032,0-.063.063-.063.095s.063.095.095.063v.252C201.26,199.714,201.228,199.745,201.228,199.809Zm-2.745-1.546a.1.1,0,0,0,.126,0,.19.19,0,0,0,.032-.126.634.634,0,0,1,.252-.126c.032.032.063.063.126.032.032-.032.063-.063.032-.126a.921.921,0,0,1,.284-.063c0,.032.063.063.095.063s.095-.063.063-.095h.252c0,.032.032.095.063.095s.095-.032.095-.063c.095.032.189.032.284.063-.032.032,0,.095.032.126s.095,0,.126-.032c.095.032.158.095.252.126a.078.078,0,0,0,.032.126.1.1,0,0,0,.126,0l.095.095-.789.694-.221.284-.032-.032.221-.284.473-.915-.631.852-.126.316c-.032,0-.032,0-.063-.032l.126-.316.221-1.01-.315.978-.063.347h-.063l.032-.347-.032-1.041-.063,1.041.032.347h-.063l-.063-.347-.316-.978.221,1.01.126.316c-.032,0-.032,0-.063.032l-.126-.316-.568-.883.473.915.221.284-.032.032-.221-.284-.789-.694C198.389,198.326,198.42,198.294,198.483,198.263Zm-.126,2.556-.095-.095a.1.1,0,0,0,0-.126.19.19,0,0,0-.126-.032.634.634,0,0,1-.126-.252c.032-.032.063-.063.032-.126-.032-.032-.063-.063-.126-.032a.921.921,0,0,1-.063-.284c.032,0,.063-.063.063-.095s-.063-.095-.095-.063v-.252c.032,0,.095-.032.095-.063s-.032-.095-.063-.095c.032-.095.032-.189.063-.284.032.032.095,0,.126-.032s0-.095-.032-.126c.032-.095.095-.158.126-.252a.078.078,0,0,0,.126-.032c.032-.063.032-.095,0-.126l.095-.095.694.789.284.221-.032.032-.284-.221-.915-.473.883.568.316.126c0,.032,0,.032-.032.063l-.316-.126-1.01-.221.978.316.347.063v.063l-.347-.032-1.073.063,1.041.063.347-.032v.063l-.347.063-.978.316,1.01-.221.316-.126c0,.032,0,.032.032.063l-.316.126-.883.568.915-.473.284-.221.032.032-.284.221Zm1.1.5c0-.032-.032-.095-.063-.095s-.095.032-.095.063c-.095-.032-.189-.032-.284-.063.032-.032,0-.095-.032-.126s-.095,0-.126.032c-.095-.032-.158-.095-.252-.126a.078.078,0,0,0-.032-.126.1.1,0,0,0-.126,0l-.095-.095.789-.694.221-.284.032.032-.221.284-.473.915.568-.883.126-.316c.032,0,.032,0,.063.032l-.126.316-.221,1.01.316-.978.063-.347h.063l-.032.347.063,1.041.063-1.041-.032-.347h.063l.063.347.316.978-.221-1.01-.126-.316c.032,0,.032,0,.063-.032l.126.316.568.883-.473-.915-.221-.284.032-.032.221.284.789.694-.095.095a.1.1,0,0,0-.126,0,.19.19,0,0,0-.032.126.634.634,0,0,1-.252.126c-.032-.032-.063-.063-.126-.032s-.063.063-.032.126a.921.921,0,0,1-.284.063c0-.032-.063-.063-.095-.063s-.095.063-.063.095h-.252Z" transform="translate(-189.61 -192.962)"/><g transform="translate(8.464 4.638)"><path class="k" d="M259.2,257.6l.095.095v-.032Z" transform="translate(-257.244 -255.234)"/><path class="k" d="M211.114,197.6a2.077,2.077,0,0,0-1.514.694l.189.158.095-.095.095-.095a.1.1,0,0,0,.126,0,.19.19,0,0,0,.032-.126c.032-.032.095-.032.126-.063l.473.915.221.284-.032.032-.221-.284-.789-.694.663.757.095.063.189.158h0l.536.442.032-.032.284.221.915.473c-.032.032-.032.095-.063.126a.078.078,0,0,0-.126.032.1.1,0,0,0,0,.126h0l.189.158a2.03,2.03,0,0,0,.473-1.294A1.973,1.973,0,0,0,211.114,197.6Zm-.158,1.672-.126-.316-.568-.852a.164.164,0,0,1,.126-.063c.032.032.063.063.126.032.032-.032.063-.063.032-.126.032,0,.095-.032.126-.032l.221,1.01.126.316C210.988,199.272,210.988,199.272,210.957,199.272Zm.189-.032.032-.347-.063-1.041-.063,1.041.032.347h-.063l-.063-.347-.315-.978c.032,0,.095-.032.126-.032,0,.032.063.063.095.063s.095-.063.063-.095h.252c0,.032.032.095.063.095s.095-.032.095-.063c.032,0,.095.032.126.032l-.316.978-.063.347Zm.063.032.126-.316.221-1.01c.032,0,.095.032.126.032-.032.032,0,.095.032.126s.095,0,.126-.032c.032.032.095.032.126.063l-.568.82-.126.316Zm1.42.947c-.032.032,0,.095.032.126-.032.032-.032.095-.063.126l-.852-.6-.316-.126c0-.032,0-.032.032-.063l.316.126,1.01.221c0,.032-.032.095-.032.126A.164.164,0,0,0,212.629,200.219Zm.221-.757v.252c-.032,0-.095.032-.095.063s.032.095.063.095c0,.032-.032.095-.032.126l-.978-.316-.347-.063v-.063l.347.032,1.041-.063-1.041-.063-.347.032v-.063l.347-.063.978-.316c0,.032.032.095.032.126-.032,0-.063.063-.063.095C212.755,199.43,212.787,199.462,212.85,199.462Zm-.221-.5c.032.032.063.063.126.032,0,.032.032.095.032.126l-1.01.221-.316.126c0-.032,0-.032-.032-.063l.316-.126.852-.568a.164.164,0,0,1,.063.126C212.629,198.862,212.6,198.925,212.629,198.957Zm-.032-.221-.915.473-.284.221-.032-.032.284-.221.694-.789-.789.694-.221.284-.032-.032.221-.284.473-.915c.032.032.095.032.126.063a.078.078,0,0,0,.032.126.1.1,0,0,0,.126,0l.095.095.095.095a.1.1,0,0,0,0,.126.19.19,0,0,0,.126.032C212.566,198.641,212.6,198.673,212.6,198.736Z" transform="translate(-209.6 -197.6)"/></g></svg>