<svg xmlns="http://www.w3.org/2000/svg" width="19.578" height="19.578" viewBox="0 0 19.578 19.578"><defs><style>.a{fill:none;stroke:#333;stroke-linecap:round;stroke-linejoin:round;stroke-width:2px;}</style></defs><g transform="translate(-2 -2)"><path class="a" d="M7.395,3h8.789a4.395,4.395,0,0,1,4.395,4.395v8.789a4.395,4.395,0,0,1-4.395,4.395H7.395A4.395,4.395,0,0,1,3,16.184V7.395A4.395,4.395,0,0,1,7.395,3Z"/><path class="a" d="M19.058,14.935A3.516,3.516,0,1,1,16.1,11.973a3.516,3.516,0,0,1,2.962,2.962Z" transform="translate(-3.753 -3.7)"/><path class="a" d="M26.25,9.75h0" transform="translate(-9.627 -2.795)"/></g></svg>