<svg xmlns="http://www.w3.org/2000/svg" width="19.25" height="19.25" viewBox="0 0 19.25 19.25"><defs><style>.a{fill:#333;}</style></defs><path class="a" d="M17.875,2.25H1.371A1.381,1.381,0,0,0,0,3.638V20.112A1.381,1.381,0,0,0,1.371,21.5h16.5a1.385,1.385,0,0,0,1.375-1.388V3.638A1.385,1.385,0,0,0,17.875,2.25ZM5.818,18.75H2.965V9.563H5.822V18.75ZM4.391,8.309A1.654,1.654,0,1,1,6.046,6.654,1.655,1.655,0,0,1,4.391,8.309ZM16.513,18.75H13.66V14.281c0-1.066-.021-2.436-1.482-2.436-1.487,0-1.714,1.16-1.714,2.359V18.75H7.61V9.563h2.737v1.255h.039a3.005,3.005,0,0,1,2.7-1.482c2.887,0,3.425,1.9,3.425,4.379Z" transform="translate(0 -2.25)"/></svg>