<svg xmlns="http://www.w3.org/2000/svg" width="53.005" height="58.489" viewBox="0 0 53.005 58.489"><defs><style>.a{fill:#333;}.b{fill:#eb2020;}</style></defs><g transform="translate(-24.001)"><path class="a" d="M33.14,368H25.829a1.828,1.828,0,1,0,0,3.656h5.483V374.4H25.829A1.828,1.828,0,0,0,24,376.225v6.4a1.828,1.828,0,0,0,1.828,1.828H33.14a1.828,1.828,0,0,0,0-3.656H27.657v-2.742H33.14a1.828,1.828,0,0,0,1.828-1.828v-6.4A1.828,1.828,0,0,0,33.14,368Z" transform="translate(0 -325.961)"/><path class="a" d="M161.14,368a1.828,1.828,0,0,0-1.828,1.828V374.4h-3.656v-4.569a1.828,1.828,0,0,0-3.656,0v6.4a1.828,1.828,0,0,0,1.828,1.828h5.483v4.569a1.828,1.828,0,0,0,3.656,0V369.828A1.828,1.828,0,0,0,161.14,368Z" transform="translate(-113.378 -325.961)"/><path class="a" d="M282.045,368.239a1.828,1.828,0,0,0-2.494.68l-7.311,12.794a1.828,1.828,0,1,0,3.174,1.814l7.311-12.794a1.828,1.828,0,0,0-.68-2.494Z" transform="translate(-219.668 -325.959)"/><path class="a" d="M401.14,368h-7.311a1.828,1.828,0,1,0,0,3.656h5.483v10.967a1.828,1.828,0,0,0,3.656,0V369.828A1.828,1.828,0,0,0,401.14,368Z" transform="translate(-325.961 -325.961)"/><path class="b" d="M112.377,31.073c1.617-3.121,1.663-9.353,1.663-10.054a21.019,21.019,0,1,0-42.039,0c0,.695.046,6.835,1.626,9.979.33.764,2.935,6.342,9.04,7.36a1.828,1.828,0,0,0,.6-3.606,7.317,7.317,0,0,1-2.806-1.1,8.291,8.291,0,0,0,3.872-2.124,7.714,7.714,0,0,0,2.226-5.876,6.23,6.23,0,0,0-2.406-4.621c-.691-.53-2.094-1.278-6.271-1.646-.772-.068-1.507-.112-2.136-.14a17.365,17.365,0,0,1,34.547,0c-.628.028-1.364.072-2.136.14-4.177.369-5.58,1.116-6.271,1.646a6.231,6.231,0,0,0-2.406,4.621,7.715,7.715,0,0,0,2.226,5.876,8.352,8.352,0,0,0,5.716,2.351,6.706,6.706,0,0,0,1.025-.077,5.169,5.169,0,0,0,3.929-2.726Z" transform="translate(-42.518)"/></g></svg>