<svg xmlns="http://www.w3.org/2000/svg" width="25.268" height="20.535" viewBox="0 0 25.268 20.535"><defs><style>.a{fill:#333;}</style></defs><path class="a" d="M27.839,7.248a10.365,10.365,0,0,1-2.977.816A5.2,5.2,0,0,0,27.141,5.2a10.378,10.378,0,0,1-3.292,1.258,5.189,5.189,0,0,0-8.834,4.728A14.718,14.718,0,0,1,4.33,5.766a5.19,5.19,0,0,0,1.6,6.921,5.163,5.163,0,0,1-2.348-.648c0,.022,0,.043,0,.065a5.187,5.187,0,0,0,4.158,5.083,5.193,5.193,0,0,1-2.341.089,5.189,5.189,0,0,0,4.843,3.6A10.4,10.4,0,0,1,3.807,23.1a10.514,10.514,0,0,1-1.237-.073,14.673,14.673,0,0,0,7.947,2.329A14.649,14.649,0,0,0,25.267,10.6q0-.337-.015-.671a10.531,10.531,0,0,0,2.587-2.683Z" transform="translate(-2.571 -4.817)"/></svg>